<?xml version="1.0" encoding="UTF-8" standalone="no"?>
<!DOCTYPE svg PUBLIC "-//W3C//DTD SVG 1.1//EN"
 "http://www.w3.org/Graphics/SVG/1.1/DTD/svg11.dtd">
<!-- Generated by graphviz version 2.47.0 (20210316.0004)
 -->
<!-- Title: dependencies Pages: 1 -->
<svg width="1173pt" height="290pt"
 viewBox="0.00 0.00 1173.00 290.00" xmlns="http://www.w3.org/2000/svg" xmlns:xlink="http://www.w3.org/1999/xlink">
<g id="graph0" class="graph" transform="scale(1 1) rotate(0) translate(4 286)">
<title>dependencies</title>
<polygon fill="white" stroke="transparent" points="-4,4 -4,-286 1169,-286 1169,4 -4,4"/>
<text text-anchor="start" x="561.51" y="-42.4" font-family="Times-12" font-weight="bold" font-size="14.00">Legend</text>
<polygon fill="#ffffb3" stroke="transparent" points="348.5,-10 348.5,-30 368.5,-30 368.5,-10 348.5,-10"/>
<text text-anchor="start" x="372.13" y="-15.4" font-family="Times-12" font-size="14.00"> &#160;Declarations</text>
<polygon fill="#8dd3c7" stroke="transparent" points="461.5,-10 461.5,-30 481.5,-30 481.5,-10 461.5,-10"/>
<text text-anchor="start" x="485.23" y="-15.4" font-family="Times-12" font-size="14.00"> &#160;Module</text>
<polygon fill="#80b1d3" stroke="transparent" points="547.5,-10 547.5,-30 567.5,-30 567.5,-10 547.5,-10"/>
<text text-anchor="start" x="571.28" y="-15.4" font-family="Times-12" font-size="14.00"> &#160;Bootstrap</text>
<polygon fill="#fdb462" stroke="transparent" points="644.5,-10 644.5,-30 664.5,-30 664.5,-10 644.5,-10"/>
<text text-anchor="start" x="668.17" y="-15.4" font-family="Times-12" font-size="14.00"> &#160;Providers</text>
<polygon fill="#fb8072" stroke="transparent" points="740.5,-10 740.5,-30 760.5,-30 760.5,-10 740.5,-10"/>
<text text-anchor="start" x="764.23" y="-15.4" font-family="Times-12" font-size="14.00"> &#160;Exports</text>
<g id="clust1" class="cluster">
<title>cluster_AppModule</title>
<polygon fill="none" stroke="black" stroke-dasharray="1,5" points="8,-70 8,-274 681,-274 681,-70 8,-70"/>
</g>
<g id="clust2" class="cluster">
<title>cluster_AppModule_declarations</title>
<polygon fill="none" stroke="black" points="16,-78 16,-130 138,-130 138,-78 16,-78"/>
</g>
<g id="clust4" class="cluster">
<title>cluster_AppModule_imports</title>
<polygon fill="none" stroke="black" points="146,-78 146,-130 673,-130 673,-78 146,-78"/>
</g>
<g id="clust6" class="cluster">
<title>cluster_AppModule_bootstrap</title>
<polygon fill="none" stroke="black" points="549,-214 549,-266 673,-266 673,-214 549,-214"/>
</g>
<g id="clust14" class="cluster">
<title>cluster_AppServerModule</title>
<polygon fill="none" stroke="black" stroke-dasharray="1,5" points="1021,-146 1021,-198 1157,-198 1157,-146 1021,-146"/>
</g>
<g id="clust68" class="cluster">
<title>cluster_TerminalModule</title>
<polygon fill="none" stroke="black" stroke-dasharray="1,5" points="689,-138 689,-206 1013,-206 1013,-138 689,-138"/>
</g>
<g id="clust69" class="cluster">
<title>cluster_TerminalModule_declarations</title>
<polygon fill="none" stroke="black" points="857,-146 857,-198 1005,-198 1005,-146 857,-146"/>
</g>
<g id="clust72" class="cluster">
<title>cluster_TerminalModule_exports</title>
<polygon fill="none" stroke="black" points="697,-146 697,-198 849,-198 849,-146 697,-146"/>
</g>
<!-- AppComponent -->
<g id="node1" class="node">
<title>AppComponent</title>
<polygon fill="#ffffb3" stroke="black" points="129.94,-122 24.06,-122 24.06,-86 129.94,-86 129.94,-122"/>
<text text-anchor="middle" x="77" y="-99.8" font-family="Times,serif" font-size="14.00">AppComponent</text>
</g>
<!-- AppModule -->
<g id="node2" class="node">
<title>AppModule</title>
<polygon fill="#8dd3c7" stroke="black" points="582.66,-190 579.66,-194 558.66,-194 555.66,-190 499.34,-190 499.34,-154 582.66,-154 582.66,-190"/>
<text text-anchor="middle" x="541" y="-167.8" font-family="Times,serif" font-size="14.00">AppModule</text>
</g>
<!-- AppComponent&#45;&gt;AppModule -->
<g id="edge1" class="edge">
<title>AppComponent&#45;&gt;AppModule</title>
<path fill="none" stroke="black" d="M77,-122.25C77,-145.02 77,-181 77,-181 77,-181 489,-181 489,-181"/>
<polygon fill="black" stroke="black" points="489,-184.5 499,-181 489,-177.5 489,-184.5"/>
</g>
<!-- AppComponent  -->
<g id="node7" class="node">
<title>AppComponent </title>
<polygon fill="#80b1d3" stroke="black" points="665.44,-258 556.56,-258 556.56,-222 665.44,-222 665.44,-258"/>
<text text-anchor="middle" x="611" y="-235.8" font-family="Times,serif" font-size="14.00">AppComponent </text>
</g>
<!-- AppModule&#45;&gt;AppComponent  -->
<g id="edge6" class="edge">
<title>AppModule&#45;&gt;AppComponent </title>
<path fill="none" stroke="black" stroke-dasharray="1,5" d="M563.1,-190.22C563.1,-190.22 563.1,-211.73 563.1,-211.73"/>
<polygon fill="black" stroke="black" points="559.61,-211.73 563.1,-221.73 566.61,-211.73 559.61,-211.73"/>
</g>
<!-- AppServerModule -->
<g id="node8" class="node">
<title>AppServerModule</title>
<polygon fill="#8dd3c7" stroke="black" points="1149.19,-190 1146.19,-194 1125.19,-194 1122.19,-190 1028.81,-190 1028.81,-154 1149.19,-154 1149.19,-190"/>
<text text-anchor="middle" x="1089" y="-167.8" font-family="Times,serif" font-size="14.00">AppServerModule</text>
</g>
<!-- AppModule&#45;&gt;AppServerModule -->
<g id="edge7" class="edge">
<title>AppModule&#45;&gt;AppServerModule</title>
<path fill="none" stroke="black" d="M569.68,-190.13C569.68,-200.71 569.68,-212 569.68,-212 569.68,-212 1076.98,-212 1076.98,-212 1076.98,-212 1076.98,-200.13 1076.98,-200.13"/>
<polygon fill="black" stroke="black" points="1080.48,-200.13 1076.98,-190.13 1073.48,-200.13 1080.48,-200.13"/>
</g>
<!-- AppModule&#45;&gt;AppServerModule -->
<g id="edge9" class="edge">
<title>AppModule&#45;&gt;AppServerModule</title>
<path fill="none" stroke="black" d="M576.25,-190.2C576.25,-196.03 576.25,-201 576.25,-201 576.25,-201 1052.94,-201 1052.94,-201 1052.94,-201 1052.94,-199.92 1052.94,-199.92"/>
<polygon fill="black" stroke="black" points="1056.44,-200.2 1052.94,-190.2 1049.44,-200.2 1056.44,-200.2"/>
</g>
<!-- AppRoutingModule -->
<g id="node3" class="node">
<title>AppRoutingModule</title>
<polygon fill="#8dd3c7" stroke="black" points="536.27,-122 533.27,-126 512.27,-126 509.27,-122 407.73,-122 407.73,-86 536.27,-86 536.27,-122"/>
<text text-anchor="middle" x="472" y="-99.8" font-family="Times,serif" font-size="14.00">AppRoutingModule</text>
</g>
<!-- AppRoutingModule&#45;&gt;AppModule -->
<g id="edge2" class="edge">
<title>AppRoutingModule&#45;&gt;AppModule</title>
<path fill="none" stroke="black" d="M517.78,-122.22C517.78,-122.22 517.78,-143.73 517.78,-143.73"/>
<polygon fill="black" stroke="black" points="514.28,-143.73 517.78,-153.73 521.28,-143.73 514.28,-143.73"/>
</g>
<!-- BrowserModule -->
<g id="node4" class="node">
<title>BrowserModule</title>
<polygon fill="#8dd3c7" stroke="black" points="389.47,-122 386.47,-126 365.47,-126 362.47,-122 282.53,-122 282.53,-86 389.47,-86 389.47,-122"/>
<text text-anchor="middle" x="336" y="-99.8" font-family="Times,serif" font-size="14.00">BrowserModule</text>
</g>
<!-- BrowserModule&#45;&gt;AppModule -->
<g id="edge3" class="edge">
<title>BrowserModule&#45;&gt;AppModule</title>
<path fill="none" stroke="black" d="M336,-122.02C336,-139.37 336,-163 336,-163 336,-163 489.02,-163 489.02,-163"/>
<polygon fill="black" stroke="black" points="489.02,-166.5 499.02,-163 489.02,-159.5 489.02,-166.5"/>
</g>
<!-- DatabaseModule -->
<g id="node5" class="node">
<title>DatabaseModule</title>
<polygon fill="#8dd3c7" stroke="black" points="264.35,-122 261.35,-126 240.35,-126 237.35,-122 153.65,-122 153.65,-86 264.35,-86 264.35,-122"/>
<text text-anchor="middle" x="209" y="-99.8" font-family="Times,serif" font-size="14.00">DatabaseModule</text>
</g>
<!-- DatabaseModule&#45;&gt;AppModule -->
<g id="edge4" class="edge">
<title>DatabaseModule&#45;&gt;AppModule</title>
<path fill="none" stroke="black" d="M209,-122.22C209,-142.37 209,-172 209,-172 209,-172 489.29,-172 489.29,-172"/>
<polygon fill="black" stroke="black" points="489.29,-175.5 499.29,-172 489.29,-168.5 489.29,-175.5"/>
</g>
<!-- TerminalModule -->
<g id="node6" class="node">
<title>TerminalModule</title>
<polygon fill="#8dd3c7" stroke="black" points="665.36,-122 662.36,-126 641.36,-126 638.36,-122 554.64,-122 554.64,-86 665.36,-86 665.36,-122"/>
<text text-anchor="middle" x="610" y="-99.8" font-family="Times,serif" font-size="14.00">TerminalModule</text>
</g>
<!-- TerminalModule&#45;&gt;AppModule -->
<g id="edge5" class="edge">
<title>TerminalModule&#45;&gt;AppModule</title>
<path fill="none" stroke="black" d="M568.7,-122.22C568.7,-122.22 568.7,-143.73 568.7,-143.73"/>
<polygon fill="black" stroke="black" points="565.2,-143.73 568.7,-153.73 572.2,-143.73 565.2,-143.73"/>
</g>
<!-- TerminalComponent  -->
<g id="node10" class="node">
<title>TerminalComponent </title>
<polygon fill="#fb8072" stroke="black" points="841.15,-190 704.85,-190 704.85,-154 841.15,-154 841.15,-190"/>
<text text-anchor="middle" x="773" y="-167.8" font-family="Times,serif" font-size="14.00">TerminalComponent </text>
</g>
<!-- TerminalModule&#45;&gt;TerminalComponent  -->
<g id="edge12" class="edge">
<title>TerminalModule&#45;&gt;TerminalComponent </title>
<path fill="none" stroke="black" stroke-dasharray="5,2" d="M624.13,-122.22C624.13,-142.37 624.13,-172 624.13,-172 624.13,-172 694.66,-172 694.66,-172"/>
<polygon fill="black" stroke="black" points="694.66,-175.5 704.66,-172 694.66,-168.5 694.66,-175.5"/>
</g>
<!-- AppServerModule&#45;&gt;AppComponent  -->
<g id="edge8" class="edge">
<title>AppServerModule&#45;&gt;AppComponent </title>
<path fill="none" stroke="black" stroke-dasharray="1,5" d="M1101.02,-190.27C1101.02,-208.56 1101.02,-234 1101.02,-234 1101.02,-234 675.79,-234 675.79,-234"/>
<polygon fill="black" stroke="black" points="675.79,-230.5 665.79,-234 675.79,-237.5 675.79,-230.5"/>
</g>
<!-- AppServerModule&#45;&gt;AppComponent  -->
<g id="edge10" class="edge">
<title>AppServerModule&#45;&gt;AppComponent </title>
<path fill="none" stroke="black" stroke-dasharray="1,5" d="M1125.06,-190.29C1125.06,-212.21 1125.06,-246 1125.06,-246 1125.06,-246 675.53,-246 675.53,-246"/>
<polygon fill="black" stroke="black" points="675.53,-242.5 665.53,-246 675.53,-249.5 675.53,-242.5"/>
</g>
<!-- TerminalComponent -->
<g id="node9" class="node">
<title>TerminalComponent</title>
<polygon fill="#ffffb3" stroke="black" points="997.15,-190 864.85,-190 864.85,-154 997.15,-154 997.15,-190"/>
<text text-anchor="middle" x="931" y="-167.8" font-family="Times,serif" font-size="14.00">TerminalComponent</text>
</g>
<!-- TerminalComponent&#45;&gt;TerminalModule -->
<g id="edge11" class="edge">
<title>TerminalComponent&#45;&gt;TerminalModule</title>
<path fill="none" stroke="black" d="M931,-153.78C931,-133.63 931,-104 931,-104 931,-104 675.55,-104 675.55,-104"/>
<polygon fill="black" stroke="black" points="675.55,-100.5 665.55,-104 675.55,-107.5 675.55,-100.5"/>
</g>
</g>
</svg>
